<svg xmlns="http://www.w3.org/2000/svg" width="80" height="67.228" viewBox="0 0 80 67.228"><defs><style>.a,.b{fill:#191919;}.a{font-size:6px;font-family:Montserrat-Light, Montserrat;font-weight:300;letter-spacing:0.17em;}</style></defs><text class="a" transform="translate(20.195 65.228)"><tspan x="0" y="0">BRECHÓ</tspan></text><path class="b" d="M1489.37,231.727c-4.213,0-6.937-2.621-6.937-6.063,0-6.372,8.273-8.479,14.9-9.815v-2.055c0-2.929-.308-3.854-2.21-3.854-1.49,0-2.21.925-3.083,3.288a4.7,4.7,0,0,1-4.728,3.392c-1.9,0-3.391-1.182-3.391-3.648,0-4.265,5.293-6.629,12.281-6.629,5.652,0,10.688,2.107,10.688,7.964v11.767c0,1.13.514,1.541,1.284,1.541a2.859,2.859,0,0,0,1.285-.308v3.032a11.121,11.121,0,0,1-5.961,1.388c-2.98,0-5.344-.668-6.012-3.186A13.708,13.708,0,0,1,1489.37,231.727Zm7.964-12.332c-3.134.771-5.19,1.85-5.19,4.111a2.277,2.277,0,0,0,2.416,2.467,4.721,4.721,0,0,0,2.774-.925Z" transform="translate(-1482.077 -206.343)"/><path class="b" d="M1520.241,213.062c-.819-2-1.28-2.865-3.019-3.122v-2.61h15.557v2.61c-2.1.256-3.019.666-2.046,3.122l3.019,7.165,2.917-7.165c.972-2.4.153-2.865-1.945-3.122v-2.61h9.468v2.61c-1.74.256-2.354,1.127-3.122,3.122L1533.6,231.18h-5.783Z" transform="translate(-1489.838 -206.563)"/><path class="b" d="M1577.583,219.035c0,7.472-5.323,12.692-13.92,12.692-6.7,0-11.72-4.3-11.72-8.6,0-2.3,1.28-4.606,4.248-4.606a3.615,3.615,0,0,1,3.735,3.685c0,1.433-.819,1.893-.819,3.07,0,1.126,1.177,2.354,3.275,2.354,3.583,0,5.271-2.149,5.527-7.318l-15.353-5.016c1.177-6.4,6.039-8.956,11.873-8.956C1572.056,206.343,1577.583,211.563,1577.583,219.035Zm-9.724-2.815c-.2-4.5-1.023-6.243-3.633-6.243-1.894,0-3.02,1.842-3.071,3.992Z" transform="translate(-1497.583 -206.343)"/><path class="b" d="M1505.875,258.849c0,5.732-5.066,8.854-11.361,8.854a16.6,16.6,0,0,1-7.831-2.1l-.614,1.331h-2.252l-1.842-8.751,2.047-.512c2.508,4.094,7.011,6.5,10.133,6.5,1.792,0,2.815-.819,2.815-2.1,0-1.484-2.1-2.3-4.708-3.224-4.094-1.433-9.416-3.326-9.416-8.495,0-4.862,4.913-8.035,10.593-8.035a11.35,11.35,0,0,1,6.909,2.1l.665-1.331h2.2l1.587,7.932-2.252.614c-2.149-3.735-5.63-5.988-8.034-5.988-1.433,0-2.252.768-2.252,1.894,0,1.433,1.843,2.252,4.2,3.07C1501.269,252.3,1505.875,254.038,1505.875,258.849Z" transform="translate(-1481.975 -214.368)"/><path class="b" d="M1538.827,258.849c0,5.732-5.066,8.854-11.361,8.854a16.606,16.606,0,0,1-7.831-2.1l-.614,1.331h-2.252l-1.843-8.751,2.047-.512c2.508,4.094,7.011,6.5,10.133,6.5,1.791,0,2.814-.819,2.814-2.1,0-1.484-2.1-2.3-4.708-3.224-4.094-1.433-9.417-3.326-9.417-8.495,0-4.862,4.913-8.035,10.594-8.035a11.35,11.35,0,0,1,6.909,2.1l.665-1.331h2.2l1.586,7.932-2.252.614c-2.149-3.735-5.629-5.988-8.034-5.988-1.434,0-2.252.768-2.252,1.894,0,1.433,1.843,2.252,4.2,3.07C1534.221,252.3,1538.827,254.038,1538.827,258.849Z" transform="translate(-1489.326 -214.368)"/><path class="b" d="M1576.945,255.011c0,7.472-5.323,12.692-13.92,12.692s-13.92-5.22-13.92-12.692,5.322-12.692,13.92-12.692S1576.945,247.539,1576.945,255.011Zm-9.673,0c0-6.09-.922-9.058-4.248-9.058s-4.248,2.968-4.248,9.058.922,9.109,4.248,9.109S1567.273,261.1,1567.273,255.011Z" transform="translate(-1496.95 -214.368)"/></svg>