<svg xmlns="http://www.w3.org/2000/svg" width="128.012" height="20.14" viewBox="0 0 128.012 20.14"><defs><style>.a{fill:#191919;}</style></defs><path class="a" d="M2116.688,260.07c-3.343,0-5.5-2.079-5.5-4.811,0-5.055,6.564-6.727,11.824-7.787v-1.631c0-2.323-.245-3.057-1.754-3.057-1.182,0-1.753.734-2.446,2.609a3.729,3.729,0,0,1-3.751,2.691,2.585,2.585,0,0,1-2.69-2.9c0-3.384,4.2-5.259,9.744-5.259,4.484,0,8.48,1.671,8.48,6.319v9.337c0,.9.408,1.223,1.019,1.223a2.263,2.263,0,0,0,1.019-.245v2.406a8.834,8.834,0,0,1-4.729,1.1c-2.365,0-4.24-.53-4.77-2.527A10.882,10.882,0,0,1,2116.688,260.07Zm6.32-9.785c-2.487.612-4.118,1.468-4.118,3.262a1.806,1.806,0,0,0,1.916,1.957,3.745,3.745,0,0,0,2.2-.734Z" transform="translate(-2111.184 -239.93)"/><path class="a" d="M2135.025,245.087c-.65-1.584-1.015-2.274-2.4-2.477v-2.071h12.345v2.071c-1.665.2-2.4.528-1.625,2.477l2.4,5.685,2.315-5.685c.771-1.909.122-2.274-1.543-2.477v-2.071h7.512v2.071c-1.381.2-1.868.893-2.477,2.477l-5.929,14.374h-4.588Z" transform="translate(-2111.184 -239.93)"/><path class="a" d="M2174.377,250c0,5.929-4.223,10.07-11.045,10.07-5.319,0-9.3-3.411-9.3-6.822,0-1.827,1.015-3.654,3.37-3.654a2.868,2.868,0,0,1,2.964,2.924c0,1.137-.65,1.5-.65,2.436,0,.893.934,1.868,2.6,1.868,2.843,0,4.183-1.706,4.386-5.807l-12.182-3.979c.934-5.076,4.791-7.106,9.42-7.106C2169.992,239.93,2174.377,244.071,2174.377,250Zm-7.715-2.233c-.162-3.574-.812-4.954-2.883-4.954-1.5,0-2.4,1.462-2.436,3.167Z" transform="translate(-2111.184 -239.93)"/><path class="a" d="M2194.687,253.045c0,4.548-4.02,7.025-9.014,7.025a13.172,13.172,0,0,1-6.213-1.665l-.487,1.056h-1.787l-1.462-6.943,1.624-.406c1.99,3.248,5.563,5.157,8.04,5.157,1.422,0,2.234-.65,2.234-1.665,0-1.178-1.665-1.828-3.736-2.559-3.248-1.137-7.472-2.639-7.472-6.74,0-3.858,3.9-6.375,8.406-6.375a9,9,0,0,1,5.482,1.665l.528-1.056h1.746l1.259,6.294-1.787.487c-1.706-2.964-4.467-4.751-6.375-4.751-1.137,0-1.787.609-1.787,1.5,0,1.137,1.462,1.787,3.33,2.437C2191.033,247.848,2194.687,249.228,2194.687,253.045Z" transform="translate(-2111.184 -239.93)"/><path class="a" d="M2215,253.045c0,4.548-4.02,7.025-9.015,7.025a13.172,13.172,0,0,1-6.213-1.665l-.487,1.056H2197.5l-1.462-6.943,1.625-.406c1.989,3.248,5.563,5.157,8.04,5.157,1.421,0,2.233-.65,2.233-1.665,0-1.178-1.665-1.828-3.736-2.559-3.248-1.137-7.471-2.639-7.471-6.74,0-3.858,3.9-6.375,8.405-6.375a9,9,0,0,1,5.482,1.665l.528-1.056h1.746l1.259,6.294-1.787.487c-1.705-2.964-4.467-4.751-6.375-4.751-1.137,0-1.787.609-1.787,1.5,0,1.137,1.462,1.787,3.33,2.437C2211.346,247.848,2215,249.228,2215,253.045Z" transform="translate(-2111.184 -239.93)"/><path class="a" d="M2239.2,250c0,5.929-4.223,10.07-11.045,10.07s-11.045-4.141-11.045-10.07,4.223-10.07,11.045-10.07S2239.2,244.071,2239.2,250Zm-7.675,0c0-4.832-.731-7.187-3.37-7.187s-3.37,2.355-3.37,7.187.731,7.228,3.37,7.228S2231.521,254.832,2231.521,250Z" transform="translate(-2111.184 -239.93)"/></svg>