<svg xmlns="http://www.w3.org/2000/svg" width="24" height="24" viewBox="0 0 24 24"><defs><style>.a,.b{fill:#191919;}.a{opacity:0;}</style></defs><rect class="a" width="24" height="24"/><path class="b" d="M13229.5,9703h-17a1.5,1.5,0,0,1-1.5-1.5v-17a1.5,1.5,0,0,1,1.5-1.5h17a1.5,1.5,0,0,1,1.5,1.5v17A1.5,1.5,0,0,1,13229.5,9703Zm-15.015-5.131h0a8.107,8.107,0,0,0,4.39,1.284h.013a7.792,7.792,0,0,0,6.039-2.653,8.434,8.434,0,0,0,2.1-5.5c0-.128,0-.249-.01-.372a5.731,5.731,0,0,0,1.428-1.48,5.632,5.632,0,0,1-1.644.448,2.86,2.86,0,0,0,1.259-1.584,5.67,5.67,0,0,1-1.816.7,2.866,2.866,0,0,0-4.881,2.609,8.143,8.143,0,0,1-5.907-2.991,2.875,2.875,0,0,0,.886,3.825,2.864,2.864,0,0,1-1.3-.358v.036a2.879,2.879,0,0,0,2.3,2.81,2.884,2.884,0,0,1-.747.1,2.926,2.926,0,0,1-.545-.052,2.858,2.858,0,0,0,2.673,1.989,5.741,5.741,0,0,1-3.543,1.229h-.013A5.953,5.953,0,0,1,13214.485,9697.868Z" transform="translate(-13209 -9681)"/></svg>