<svg xmlns="http://www.w3.org/2000/svg" width="24" height="24" viewBox="0 0 24 24"><defs><style>.a,.b{fill:#191919;}.a{opacity:0;}</style></defs><rect class="a" width="24" height="24"/><path class="b" d="M13.75,6.25V5a5,5,0,0,0-10,0V6.25H0V16.875A3.125,3.125,0,0,0,3.125,20h11.25A3.125,3.125,0,0,0,17.5,16.875V6.25ZM6.25,5a2.5,2.5,0,0,1,5,0V6.25h-5ZM12.5,9.687a.937.937,0,1,1,.938-.937A.937.937,0,0,1,12.5,9.687Zm-7.5,0a.937.937,0,1,1,.938-.937A.937.937,0,0,1,5,9.687Z" transform="translate(3 2)"/></svg>