<svg xmlns="http://www.w3.org/2000/svg" width="24" height="24" viewBox="0 0 24 24"><defs><style>.a,.b{fill:#191919;}.a{opacity:0;}</style></defs><rect class="a" width="24" height="24"/><path class="b" d="M1.25,18.125A1.875,1.875,0,0,0,3.125,20h11.25a1.875,1.875,0,0,0,1.875-1.875V5h-15Zm10.625-10a.625.625,0,1,1,1.25,0v8.75a.625.625,0,0,1-1.25,0Zm-3.75,0a.625.625,0,1,1,1.25,0v8.75a.625.625,0,0,1-1.25,0Zm-3.75,0a.625.625,0,1,1,1.25,0v8.75a.625.625,0,0,1-1.25,0Zm12.5-6.875H12.187L11.82.519A.938.938,0,0,0,10.98,0H6.516a.927.927,0,0,0-.836.52l-.367.73H.625A.625.625,0,0,0,0,1.875v1.25a.625.625,0,0,0,.625.625h16.25a.625.625,0,0,0,.625-.625V1.875A.625.625,0,0,0,16.875,1.25Z" transform="translate(3 2)"/></svg>